HIERARCHY
ROOT newVegas:Hips
{
	OFFSET 0.000000 96.479958 0.000000
	CHANNELS 6 Xposition Yposition Zposition Xrotation Yrotation Zrotation
	JOINT newVegas:Pelvis
	{
		OFFSET 0.000000 0.000000 0.000000
		CHANNELS 3 Xrotation Yrotation Zrotation
		JOINT newVegas:LeftUpLeg
		{
			OFFSET 18.735201 -5.666702 -4.541200
			CHANNELS 3 Xrotation Yrotation Zrotation
			JOINT newVegas:LeftLeg
			{
				OFFSET -0.021200 -31.938179 0.493100
				CHANNELS 3 Xrotation Yrotation Zrotation
				JOINT newVegas:LeftFoot
				{
					OFFSET 0.021200 -31.938179 -4.336299
					CHANNELS 3 Xrotation Yrotation Zrotation
					JOINT newVegas:LeftToeBase
					{
						OFFSET 0.943001 -26.722000 15.023500
						CHANNELS 3 Xrotation Yrotation Zrotation
						End Site
						{
							OFFSET 0.000000 30.670183 0.000000
						}
					}
				}
				JOINT newVegas:Left_PantLeg
				{
					OFFSET 0.663870 -9.044666 -1.108900
					CHANNELS 3 Xrotation Yrotation Zrotation
					End Site
					{
						OFFSET 1.415995 20.635357 0.000000
					}
				}
			}
		}
		JOINT newVegas:RightUpLeg
		{
			OFFSET -18.735201 -5.666702 -4.541200
			CHANNELS 3 Xrotation Yrotation Zrotation
			JOINT newVegas:RightLeg
			{
				OFFSET 0.018946 -31.938133 0.493100
				CHANNELS 3 Xrotation Yrotation Zrotation
				JOINT newVegas:RightFoot
				{
					OFFSET -0.018946 -31.938126 -4.336299
					CHANNELS 3 Xrotation Yrotation Zrotation
					JOINT newVegas:RightToeBase
					{
						OFFSET -0.943001 -26.722004 15.023500
						CHANNELS 3 Xrotation Yrotation Zrotation
						End Site
						{
							OFFSET 0.000000 30.670187 0.000000
						}
					}
				}
				JOINT newVegas:Right_PantLeg
				{
					OFFSET -0.661674 -9.044716 -1.108900
					CHANNELS 3 Xrotation Yrotation Zrotation
					End Site
					{
						OFFSET -1.415958 20.635269 0.000000
					}
				}
			}
		}
	}
	JOINT newVegas:Spine
	{
		OFFSET 0.000000 10.199997 -0.299500
		CHANNELS 3 Xrotation Yrotation Zrotation
		JOINT newVegas:Spine1
		{
			OFFSET 0.000000 11.900002 -1.516600
			CHANNELS 3 Xrotation Yrotation Zrotation
			JOINT newVegas:Spine2
			{
				OFFSET 0.000000 13.600006 -2.842500
				CHANNELS 3 Xrotation Yrotation Zrotation
				JOINT newVegas:Neck
				{
					OFFSET 0.000000 9.624100 -2.890100
					CHANNELS 3 Xrotation Yrotation Zrotation
					JOINT newVegas:Head
					{
						OFFSET 0.000000 14.068802 -1.351900
						CHANNELS 3 Xrotation Yrotation Zrotation
						JOINT newVegas:Hair_Back
						{
							OFFSET 0.000000 3.231903 -17.524799
							CHANNELS 3 Xrotation Yrotation Zrotation
							End Site
							{
								OFFSET 0.000000 19.849884 0.000000
							}
						}
						JOINT newVegas:Hair_Front
						{
							OFFSET 0.000000 31.260406 4.573800
							CHANNELS 3 Xrotation Yrotation Zrotation
							JOINT newVegas:Hair_Front1
							{
								OFFSET 0.000000 2.284103 11.993300
								CHANNELS 3 Xrotation Yrotation Zrotation
								JOINT newVegas:Hair_Front2
								{
									OFFSET 0.000000 2.284103 11.993300
									CHANNELS 3 Xrotation Yrotation Zrotation
									End Site
									{
										OFFSET 0.000000 12.208862 0.000000
									}
								}
							}
						}
						JOINT newVegas:Jowel
						{
							OFFSET 0.000000 -7.458206 6.864100
							CHANNELS 3 Xrotation Yrotation Zrotation
							End Site
							{
								OFFSET 0.000000 19.849884 0.000000
							}
						}
					}
				}
				JOINT newVegas:LeftShoulder
				{
					OFFSET 15.263000 10.923401 -0.547700
					CHANNELS 3 Xrotation Yrotation Zrotation
					JOINT newVegas:LeftArm
					{
						OFFSET 25.438599 -2.830597 -13.032500
						CHANNELS 3 Xrotation Yrotation Zrotation
						JOINT newVegas:LeftForeArm
						{
							OFFSET 29.960503 0.000000 0.000000
							CHANNELS 3 Xrotation Yrotation Zrotation
							JOINT newVegas:LeftHand
							{
								OFFSET 27.849251 0.000000 0.000000
								CHANNELS 3 Xrotation Yrotation Zrotation
								JOINT newVegas:LeftHandThumb1
								{
									OFFSET 4.487587 -3.305161 6.305391
									CHANNELS 3 Xrotation Yrotation Zrotation
									JOINT newVegas:LeftHandThumb2
									{
										OFFSET 5.480453 -3.164139 3.164143
										CHANNELS 3 Xrotation Yrotation Zrotation
										JOINT newVegas:LeftHandThumb3
										{
											OFFSET 5.159721 -2.978973 2.978967
											CHANNELS 3 Xrotation Yrotation Zrotation
											End Site
											{
												OFFSET 2.494507 5.926697 1.738678
											}
										}
									}
								}
								JOINT newVegas:LeftHandIndex1
								{
									OFFSET 18.578728 -0.527832 5.208049
									CHANNELS 3 Xrotation Yrotation Zrotation
									JOINT newVegas:LeftHandIndex2
									{
										OFFSET 3.192009 0.000000 0.000000
										CHANNELS 3 Xrotation Yrotation Zrotation
										JOINT newVegas:LeftHandIndex3
										{
											OFFSET 3.835129 0.000000 0.000000
											CHANNELS 3 Xrotation Yrotation Zrotation
											End Site
											{
												OFFSET -0.034599 3.816971 0.371180
											}
										}
									}
								}
								JOINT newVegas:LeftHandMiddle1
								{
									OFFSET 18.476105 0.000000 0.000000
									CHANNELS 3 Xrotation Yrotation Zrotation
									JOINT newVegas:LeftHandMiddle2
									{
										OFFSET 3.324875 0.000000 0.000000
										CHANNELS 3 Xrotation Yrotation Zrotation
										JOINT newVegas:LeftHandMiddle3
										{
											OFFSET 4.596550 0.000000 0.000000
											CHANNELS 3 Xrotation Yrotation Zrotation
											End Site
											{
												OFFSET 0.057701 4.578827 0.399218
											}
										}
									}
								}
								JOINT newVegas:LeftHandRing1
								{
									OFFSET 17.732719 0.121887 -4.201567
									CHANNELS 3 Xrotation Yrotation Zrotation
									JOINT newVegas:LeftHandRing2
									{
										OFFSET 2.733170 0.000000 0.000000
										CHANNELS 3 Xrotation Yrotation Zrotation
										JOINT newVegas:LeftHandRing3
										{
											OFFSET 3.178268 0.000000 0.000000
											CHANNELS 3 Xrotation Yrotation Zrotation
											End Site
											{
												OFFSET 0.119102 3.170624 0.185394
											}
										}
									}
								}
								JOINT newVegas:LeftHandPinky1
								{
									OFFSET 15.989624 -0.606689 -7.535461
									CHANNELS 3 Xrotation Yrotation Zrotation
									JOINT newVegas:LeftHandPinky2
									{
										OFFSET 2.538986 0.000000 0.000000
										CHANNELS 3 Xrotation Yrotation Zrotation
										JOINT newVegas:LeftHandPinky3
										{
											OFFSET 2.593102 0.000000 0.000000
											CHANNELS 3 Xrotation Yrotation Zrotation
											End Site
											{
												OFFSET -0.150902 2.584198 0.152708
											}
										}
									}
								}
							}
							JOINT newVegas:Left_Sleeve
							{
								OFFSET 0.267448 -0.649796 0.577675
								CHANNELS 3 Xrotation Yrotation Zrotation
								End Site
								{
									OFFSET 0.000000 15.991241 0.000000
								}
							}
							JOINT newVegas:Left_CapeC
							{
								OFFSET 15.715958 -8.608795 -6.935905
								CHANNELS 3 Xrotation Yrotation Zrotation
								JOINT newVegas:Left_CapeC1
								{
									OFFSET 0.000000 -8.688499 0.000000
									CHANNELS 3 Xrotation Yrotation Zrotation
									End Site
									{
										OFFSET 0.000000 8.688499 0.000000
									}
								}
							}
						}
						JOINT newVegas:Left_CapeB
						{
							OFFSET 26.118385 -8.608795 -7.079235
							CHANNELS 3 Xrotation Yrotation Zrotation
							JOINT newVegas:Left_CapeB1
							{
								OFFSET 0.000000 -8.688499 0.000000
								CHANNELS 3 Xrotation Yrotation Zrotation
								End Site
								{
									OFFSET 0.000000 8.688499 0.000000
								}
							}
						}
						JOINT newVegas:Left_CapeA
						{
							OFFSET 5.115639 -8.608795 -10.395809
							CHANNELS 3 Xrotation Yrotation Zrotation
							JOINT newVegas:Left_CapeA1
							{
								OFFSET 0.000000 -8.688499 0.000000
								CHANNELS 3 Xrotation Yrotation Zrotation
								End Site
								{
									OFFSET 0.000000 8.688499 0.000000
								}
							}
						}
					}
				}
				JOINT newVegas:RightShoulder
				{
					OFFSET -15.263000 10.923401 -0.547700
					CHANNELS 3 Xrotation Yrotation Zrotation
					JOINT newVegas:RightArm
					{
						OFFSET -25.438599 -2.830597 -13.032500
						CHANNELS 3 Xrotation Yrotation Zrotation
						JOINT newVegas:RightForeArm
						{
							OFFSET -29.960503 0.000000 0.000000
							CHANNELS 3 Xrotation Yrotation Zrotation
							JOINT newVegas:RightHand
							{
								OFFSET -27.849251 0.000000 0.000000
								CHANNELS 3 Xrotation Yrotation Zrotation
								JOINT newVegas:RightHandThumb1
								{
									OFFSET -4.487587 -3.305161 6.305391
									CHANNELS 3 Xrotation Yrotation Zrotation
									JOINT newVegas:RightHandThumb2
									{
										OFFSET -5.480453 -3.164139 3.164143
										CHANNELS 3 Xrotation Yrotation Zrotation
										JOINT newVegas:RightHandThumb3
										{
											OFFSET -5.159721 -2.978973 2.978967
											CHANNELS 3 Xrotation Yrotation Zrotation
											End Site
											{
												OFFSET -2.494507 5.926697 1.738678
											}
										}
									}
								}
								JOINT newVegas:RightHandIndex1
								{
									OFFSET -18.578728 -0.527832 5.208049
									CHANNELS 3 Xrotation Yrotation Zrotation
									JOINT newVegas:RightHandIndex2
									{
										OFFSET -3.192009 0.000000 0.000000
										CHANNELS 3 Xrotation Yrotation Zrotation
										JOINT newVegas:RightHandIndex3
										{
											OFFSET -3.835129 0.000000 0.000000
											CHANNELS 3 Xrotation Yrotation Zrotation
											End Site
											{
												OFFSET 0.034599 3.816971 0.371180
											}
										}
									}
								}
								JOINT newVegas:RightHandMiddle1
								{
									OFFSET -18.476105 0.000000 0.000000
									CHANNELS 3 Xrotation Yrotation Zrotation
									JOINT newVegas:RightHandMiddle2
									{
										OFFSET -3.324875 0.000000 0.000000
										CHANNELS 3 Xrotation Yrotation Zrotation
										JOINT newVegas:RightHandMiddle3
										{
											OFFSET -4.596550 0.000000 0.000000
											CHANNELS 3 Xrotation Yrotation Zrotation
											End Site
											{
												OFFSET -0.057701 4.578827 0.399218
											}
										}
									}
								}
								JOINT newVegas:RightHandRing1
								{
									OFFSET -17.732719 0.121887 -4.201567
									CHANNELS 3 Xrotation Yrotation Zrotation
									JOINT newVegas:RightHandRing2
									{
										OFFSET -2.733170 0.000000 0.000000
										CHANNELS 3 Xrotation Yrotation Zrotation
										JOINT newVegas:RightHandRing3
										{
											OFFSET -3.178268 0.000000 0.000000
											CHANNELS 3 Xrotation Yrotation Zrotation
											End Site
											{
												OFFSET -0.119102 3.170624 0.185394
											}
										}
									}
								}
								JOINT newVegas:RightHandPinky1
								{
									OFFSET -15.989624 -0.606689 -7.535461
									CHANNELS 3 Xrotation Yrotation Zrotation
									JOINT newVegas:RightHandPinky2
									{
										OFFSET -2.538986 0.000000 0.000000
										CHANNELS 3 Xrotation Yrotation Zrotation
										JOINT newVegas:RightHandPinky3
										{
											OFFSET -2.593102 0.000000 0.000000
											CHANNELS 3 Xrotation Yrotation Zrotation
											End Site
											{
												OFFSET 0.150902 2.584198 0.152708
											}
										}
									}
								}
							}
							JOINT newVegas:Right_CapeC
							{
								OFFSET -15.715958 -8.608795 -6.935905
								CHANNELS 3 Xrotation Yrotation Zrotation
								JOINT newVegas:Right_CapeC1
								{
									OFFSET 0.000000 -8.688499 0.000000
									CHANNELS 3 Xrotation Yrotation Zrotation
									End Site
									{
										OFFSET 0.000000 8.688499 0.000000
									}
								}
							}
							JOINT newVegas:Right_Sleeve
							{
								OFFSET -0.267448 -0.649994 0.577675
								CHANNELS 3 Xrotation Yrotation Zrotation
								End Site
								{
									OFFSET 0.000000 15.991302 0.000000
								}
							}
						}
						JOINT newVegas:Right_CapeA
						{
							OFFSET -5.115540 -8.608795 -10.395824
							CHANNELS 3 Xrotation Yrotation Zrotation
							JOINT newVegas:Right_CapeA1
							{
								OFFSET 0.000000 -8.688499 0.000000
								CHANNELS 3 Xrotation Yrotation Zrotation
								End Site
								{
									OFFSET 0.000000 8.688499 0.000000
								}
							}
						}
						JOINT newVegas:Right_CapeB
						{
							OFFSET -26.118187 -8.608795 -7.079266
							CHANNELS 3 Xrotation Yrotation Zrotation
							JOINT newVegas:Right_CapeB1
							{
								OFFSET 0.000000 -8.688499 0.000000
								CHANNELS 3 Xrotation Yrotation Zrotation
								End Site
								{
									OFFSET 0.000000 8.688499 0.000000
								}
							}
						}
					}
				}
				JOINT newVegas:Left_Collar
				{
					OFFSET 18.625099 8.655502 8.828100
					CHANNELS 3 Xrotation Yrotation Zrotation
					JOINT newVegas:Left_Collar1
					{
						OFFSET 14.783401 10.540405 -1.259500
						CHANNELS 3 Xrotation Yrotation Zrotation
						End Site
						{
							OFFSET 0.000000 18.199875 0.000000
						}
					}
				}
				JOINT newVegas:Collar_Back
				{
					OFFSET 0.000000 15.630707 -20.132601
					CHANNELS 3 Xrotation Yrotation Zrotation
					End Site
					{
						OFFSET 0.000000 22.523010 0.000000
					}
				}
				JOINT newVegas:Left_Peck
				{
					OFFSET 17.239599 -5.132599 25.482599
					CHANNELS 3 Xrotation Yrotation Zrotation
					End Site
					{
						OFFSET 0.000000 22.523010 0.000000
					}
				}
				JOINT newVegas:Right_Peck
				{
					OFFSET -17.239599 -5.132202 25.482599
					CHANNELS 3 Xrotation Yrotation Zrotation
					End Site
					{
						OFFSET 0.000000 22.523010 0.000000
					}
				}
				JOINT newVegas:Right_Collar
				{
					OFFSET -18.625099 8.655792 8.828100
					CHANNELS 3 Xrotation Yrotation Zrotation
					JOINT newVegas:Right_Collar1
					{
						OFFSET -14.783401 10.539993 -1.259500
						CHANNELS 3 Xrotation Yrotation Zrotation
						End Site
						{
							OFFSET 0.000000 18.199631 0.000000
						}
					}
				}
			}
		}
		JOINT newVegas:Belly
		{
			OFFSET 0.000000 -6.540398 9.014299
			CHANNELS 3 Xrotation Yrotation Zrotation
			End Site
			{
				OFFSET 0.000000 11.566666 0.000000
			}
		}
	}
	JOINT newVegas:ElvisFacialAnim_Joint
	{
		OFFSET 1.000000 -95.330101 -8.825800
		CHANNELS 3 Xrotation Yrotation Zrotation
		End Site
		{
			OFFSET 0.000000 35.315800 0.000000
		}
	}
}
MOTION
Frames: 4
Frame Time: 0.033333
-0.808603 70.858528 3.920815 36.689010 -1.852019 -15.854373 0.000002 0.000000 -0.000001 -57.382769 19.390011 -19.373980 65.734676 26.911034 -8.600917 -45.249050 -15.700351 30.705498 -0.000000 -0.000000 -0.000000 -0.000001 -0.000002 -0.000000 -102.682441 18.399623 8.709374 89.719166 -20.594351 -6.556519 16.878950 0.337329 -1.869541 -0.000000 -0.000001 -0.000000 -0.000003 0.000001 -0.000000 20.481094 0.027655 -0.750589 7.515663 0.660764 0.296181 15.448098 1.039460 -0.047977 -5.640279 0.204521 -1.177219 -5.640295 0.204520 -1.177218 -0.000001 0.000000 -0.000000 -5.640220 0.204513 -1.177224 -5.640307 0.204530 -1.177220 0.000001 0.000000 0.000003 -0.000001 0.000000 -0.000000 3.008934 7.227060 1.559986 10.259144 -25.512698 -60.374358 -1.049052 -30.006138 -14.557030 2.774443 13.935756 -23.371295 57.941799 3.450228 30.457470 8.441287 21.134134 3.687174 -0.000000 0.000000 -0.000004 0.393653 -8.706371 8.742873 -0.000011 -0.002457 -0.004600 -0.000003 0.000003 0.000001 -0.914602 -3.276688 3.615585 -0.003241 -0.014883 -22.772496 0.000002 0.000001 0.000001 -0.887745 -3.553133 -17.231191 -0.004267 -0.018078 -25.853005 -0.000003 -0.000002 -0.000001 -13.766339 -2.321815 -33.828226 -0.002481 -0.014580 -20.678789 0.000002 -0.000002 0.000001 0.000001 0.000002 -0.000000 0.000001 0.000002 -0.000000 -0.000000 0.000002 -0.000000 -0.000002 -0.000002 -0.000002 -0.000001 -0.000002 -0.000001 -0.000002 -0.000002 -0.000002 -0.000003 -0.000001 -0.000002 2.287907 -11.409606 -9.027233 15.936930 37.828009 55.221338 -19.039188 25.397423 17.479446 0.318639 -2.391939 22.331249 57.942872 -3.450581 -30.455465 8.439430 -21.133695 -3.688593 0.000000 -0.000004 -0.000001 0.393683 8.707072 -8.736275 0.000019 0.002702 -0.000018 0.000001 -0.000001 0.000001 -0.914481 3.277505 -3.618992 -0.004079 0.016169 22.775008 -0.000000 0.000003 -0.000001 -0.887576 3.552614 17.232844 -0.003966 0.018088 25.851808 0.000002 -0.000001 -0.000000 -13.764908 2.319721 33.828499 -0.002192 0.016168 20.687157 -0.000000 0.000003 0.000000 -0.000001 -0.000000 0.000002 -0.000000 -0.000001 0.000001 -0.000001 -0.000001 -0.000000 0.000000 0.000000 0.000002 0.000001 0.000000 0.000001 0.000000 0.000000 0.000002 0.000001 0.000000 0.000002 -0.000001 -0.000000 0.000000 -0.000001 -0.000000 0.000000 -0.000001 -0.000000 0.000000 -0.000001 -0.000000 0.000000 -0.000001 -0.000000 0.000000 -0.000001 -0.000000 0.000000 -0.000001 -0.000000 0.000000 0.000001 -0.000001 -0.000000 0.000002 0.000000 -0.000001 
-1.235655 71.286880 16.255184 37.294332 0.082354 -17.755241 -0.000003 0.000000 -0.000002 -47.024165 15.249068 -19.875405 64.130258 30.971424 -4.588655 -51.119144 -12.634405 22.194684 0.000001 -0.000000 -0.000001 0.000000 0.000002 -0.000002 -104.074482 21.230229 5.753938 71.995583 -15.247171 -9.080659 13.230301 0.689143 7.722689 0.000000 -0.000001 -0.000003 -0.000000 -0.000001 0.000001 19.634583 -1.070918 0.194399 6.804259 0.275965 0.738537 14.737661 0.638096 0.459815 -5.277463 0.362271 -1.196271 -5.277496 0.362271 -1.196266 -0.000001 0.000000 0.000000 -5.277383 0.362293 -1.196275 -5.277499 0.362238 -1.196266 0.000000 0.000000 0.000001 -0.000001 0.000000 -0.000000 3.016525 7.123183 1.499645 11.955162 -25.019000 -60.312633 -0.453440 -32.743247 -14.028788 2.543926 14.832842 -22.618617 57.941799 3.450231 30.457477 8.441282 21.134130 3.687168 0.000002 0.000002 -0.000001 0.393660 -8.706370 8.742874 -0.000008 -0.002455 -0.004598 -0.000004 -0.000002 -0.000000 -0.914600 -3.276688 3.615585 -0.003245 -0.014885 -22.772491 -0.000002 0.000001 0.000002 -0.887735 -3.553131 -17.231191 -0.004266 -0.018079 -25.853002 0.000004 0.000001 -0.000002 -13.766331 -2.321811 -33.828226 -0.002473 -0.014581 -20.678785 -0.000001 -0.000005 -0.000000 0.000003 0.000001 -0.000000 0.000003 0.000001 -0.000000 0.000002 0.000001 0.000000 0.000001 0.000001 0.000001 0.000002 0.000001 0.000001 0.000001 0.000001 0.000001 0.000000 0.000002 0.000001 2.250713 -10.943919 -9.007926 15.622705 37.240879 55.585165 -17.036292 25.976832 17.160411 0.234589 -4.056851 22.352515 57.942865 -3.450583 -30.455462 8.439432 -21.133693 -3.688589 -0.000002 -0.000003 0.000001 0.393683 8.707066 -8.736271 0.000018 0.002701 -0.000019 -0.000001 -0.000002 -0.000003 -0.914481 3.277499 -3.618987 -0.004076 0.016172 22.775003 0.000001 0.000001 0.000001 -0.887576 3.552612 17.232851 -0.003968 0.018086 25.851808 -0.000002 0.000004 0.000002 -13.764913 2.319719 33.828499 -0.002195 0.016161 20.687159 -0.000001 0.000002 0.000000 0.000001 -0.000002 -0.000001 -0.000000 -0.000001 -0.000002 0.000001 -0.000002 0.000002 -0.000001 0.000001 0.000002 -0.000001 0.000002 0.000000 -0.000001 0.000001 0.000002 -0.000000 0.000002 0.000002 -0.000000 -0.000000 -0.000000 -0.000000 -0.000000 -0.000000 -0.000000 -0.000000 -0.000000 -0.000000 -0.000000 -0.000000 -0.000000 -0.000000 -0.000000 -0.000000 -0.000000 -0.000000 -0.000000 -0.000000 -0.000000 0.000001 -0.000001 -0.000001 -0.000003 0.000000 -0.000002 
-1.188974 71.003571 30.082689 37.965402 2.028029 -18.488996 0.000003 0.000000 -0.000000 -42.557690 12.623807 -17.201823 68.178894 31.929208 -1.520964 -45.366731 -7.195576 14.774572 -0.000001 0.000004 -0.000001 0.000000 0.000001 -0.000002 -97.469204 18.800019 -1.479804 43.724323 -8.602037 -9.674340 20.607388 1.372360 10.038221 -0.000000 -0.000001 -0.000000 0.000000 -0.000001 0.000000 18.122891 -3.542648 0.021972 5.679016 0.059269 0.635032 13.612187 0.388690 0.392680 -4.591284 0.638848 -1.350369 -4.591258 0.638838 -1.350384 -0.000001 -0.000001 -0.000001 -4.591274 0.638846 -1.350368 -4.591250 0.638831 -1.350387 0.000001 0.000001 -0.000001 -0.000001 -0.000001 -0.000001 3.289750 7.148815 0.301001 15.020938 -23.377507 -59.447036 1.305246 -34.793793 -13.509499 2.647226 16.841747 -22.962013 57.941806 3.450226 30.457473 8.441281 21.134130 3.687160 -0.000000 0.000001 -0.000004 0.393659 -8.706374 8.742868 -0.000013 -0.002455 -0.004597 -0.000001 -0.000002 0.000000 -0.914596 -3.276689 3.615582 -0.003240 -0.014885 -22.772500 0.000001 0.000001 0.000002 -0.887734 -3.553136 -17.231194 -0.004265 -0.018084 -25.853004 0.000002 0.000001 0.000005 -13.766328 -2.321817 -33.828226 -0.002481 -0.014581 -20.678792 -0.000003 -0.000007 0.000000 -0.000001 -0.000001 -0.000002 -0.000001 -0.000001 -0.000002 -0.000002 -0.000001 -0.000001 0.000001 -0.000001 -0.000000 0.000002 -0.000001 -0.000000 0.000001 -0.000001 -0.000000 0.000000 0.000000 -0.000001 2.469394 -10.429374 -8.147174 16.072586 35.466604 56.472031 -14.413256 27.143424 16.736479 0.278708 -6.175581 22.936696 57.942865 -3.450583 -30.455462 8.439430 -21.133691 -3.688589 0.000001 -0.000001 0.000001 0.393679 8.707067 -8.736270 0.000019 0.002702 -0.000018 0.000001 -0.000002 0.000002 -0.914483 3.277502 -3.618988 -0.004078 0.016170 22.775010 -0.000000 0.000003 -0.000001 -0.887580 3.552615 17.232849 -0.003970 0.018086 25.851807 -0.000002 -0.000001 -0.000001 -13.764911 2.319720 33.828499 -0.002191 0.016160 20.687154 -0.000001 0.000002 -0.000001 0.000001 0.000001 -0.000002 -0.000001 0.000003 -0.000001 0.000001 0.000000 -0.000002 -0.000001 -0.000001 -0.000003 -0.000001 -0.000002 -0.000003 -0.000001 -0.000001 -0.000003 -0.000001 -0.000002 -0.000002 -0.000000 0.000000 0.000001 -0.000000 0.000000 0.000001 -0.000000 0.000000 0.000001 -0.000000 0.000000 0.000001 -0.000000 0.000000 0.000001 -0.000000 0.000000 0.000001 -0.000000 0.000000 0.000001 -0.000000 -0.000001 -0.000000 0.000003 0.000000 -0.000000 
-1.041660 69.901985 44.311001 38.223105 4.351477 -18.794572 0.000002 -0.000000 -0.000002 -50.631021 11.056021 -9.809964 72.995482 20.191991 -0.870549 -4.231616 -2.456271 21.834173 0.000000 0.000000 0.000000 0.000003 0.000001 -0.000006 -86.728123 14.259242 -9.479531 13.370404 -1.634108 -5.264957 35.488205 3.147642 11.841630 -0.000000 0.000002 -0.000000 0.000000 0.000000 0.000000 16.602680 -5.948990 -0.699694 4.458589 0.116114 0.064853 12.395134 0.401085 -0.189818 -4.023962 0.871274 -1.599134 -4.024005 0.871272 -1.599123 0.000000 -0.000001 -0.000001 -4.023915 0.871297 -1.599130 -4.024001 0.871232 -1.599126 -0.000000 0.000000 -0.000002 0.000000 -0.000001 -0.000001 3.795317 7.547494 -1.729119 18.797403 -21.654213 -57.140246 2.831297 -35.477106 -13.641062 2.630071 18.710605 -22.903552 57.941799 3.450227 30.457480 8.441285 21.134127 3.687169 0.000001 0.000000 -0.000010 0.393658 -8.706375 8.742871 -0.000016 -0.002454 -0.004599 -0.000002 0.000003 0.000001 -0.914598 -3.276691 3.615585 -0.003243 -0.014881 -22.772493 0.000000 0.000001 0.000001 -0.887739 -3.553132 -17.231191 -0.004266 -0.018080 -25.853004 0.000001 0.000001 0.000004 -13.766332 -2.321814 -33.828226 -0.002482 -0.014579 -20.678792 -0.000002 -0.000003 -0.000000 -0.000000 0.000000 0.000000 -0.000000 0.000000 0.000000 -0.000001 0.000000 0.000001 -0.000002 0.000002 -0.000001 -0.000002 0.000002 -0.000002 -0.000002 0.000002 -0.000001 -0.000003 0.000003 -0.000002 2.886136 -10.334379 -6.764160 16.816365 32.664820 58.005757 -11.764160 28.420141 16.229624 0.582041 -8.172149 24.377715 57.942865 -3.450582 -30.455465 8.439430 -21.133691 -3.688588 0.000003 -0.000002 -0.000001 0.393683 8.707069 -8.736270 0.000018 0.002703 -0.000019 0.000002 0.000002 -0.000001 -0.914482 3.277505 -3.618989 -0.004080 0.016171 22.775013 -0.000000 0.000001 -0.000002 -0.887580 3.552617 17.232849 -0.003970 0.018083 25.851807 0.000001 0.000002 -0.000001 -13.764912 2.319719 33.828499 -0.002195 0.016158 20.687154 0.000000 0.000002 -0.000000 0.000000 -0.000005 0.000002 0.000000 -0.000003 -0.000001 0.000000 -0.000005 0.000002 0.000000 0.000001 -0.000001 -0.000000 0.000001 -0.000001 0.000000 0.000001 -0.000001 0.000000 0.000001 0.000001 -0.000000 0.000000 0.000000 -0.000000 0.000000 0.000000 -0.000000 0.000000 0.000000 -0.000000 0.000000 0.000000 -0.000000 0.000000 0.000000 -0.000000 0.000000 0.000000 -0.000000 0.000000 0.000000 0.000005 0.000001 0.000001 0.000002 -0.000000 -0.000002 
